# xmcd
#
# Track frame offsets: 
#        150
#        12508
#        29908
#        42427
#        54816
#        82759
#        96471
#
# Disc length: 1458 seconds
#
# Revision: 0
# Processed by: cddbd v1.5.2PL0 Copyright (c) Steve Scherf et al.
# Submitted via: ExactAudioCopy v0.99pb4
#
DISCID=5305b007
DTITLE=Paul Mauriat - Toccata (Japan)
DYEAR=1977
DGENRE=Easy Listening
TTITLE0=Toccata
TTITLE1=Yesterday Once More
TTITLE2=Petit Oiseau Mecanique
TTITLE3=Emmenuelle
TTITLE4=Over the Rainbow - Singin in the Rain
TTITLE5=My Sweet Lord
TTITLE6=From Souvenirs to Souvenirs
EXTD=
EXTT0=
EXTT1=
EXTT2=
EXTT3=
EXTT4=
EXTT5=
EXTT6=
PLAYORDER=
